<mxfile host="app.diagrams.net" modified="2023-10-06T14:39:14.033Z" agent="Mozilla/5.0 (Windows NT 10.0; Win64; x64) AppleWebKit/537.36 (KHTML, like Gecko) Chrome/117.0.0.0 Safari/537.36" version="21.8.2" etag="lWokkRccZFGJvi86YW0F" type="github">
  <diagram name="第 1 页" id="r_Oe4n54LDOU9FWPaIyu">
    <mxGraphModel>
      <root>
        <mxCell id="0" />
        <mxCell id="1" parent="0" />
      </root>
    </mxGraphModel>
  </diagram>
</mxfile>
